<svg xmlns="http://www.w3.org/2000/svg" xmlns:xlink="http://www.w3.org/1999/xlink" width="653px" height="258px" version="1.1"><defs/><g transform="translate(0.5,0.5)"><rect x="0" y="115" width="321" height="77" fill="#ffd966" stroke="#000000" pointer-events="none"/><path d="M 0 132.28 L 321 132.28" fill="none" stroke="#000000" stroke-miterlimit="10" pointer-events="none"/><g fill="#000000" font-family="Helvetica" font-weight="bold" text-anchor="middle" font-size="12px"><text x="160" y="127.5">Object</text></g><g fill="#000000" font-family="Helvetica" font-size="12px"><text x="6.5" y="146.78">-name : String</text></g><g fill="#000000" font-family="Helvetica" font-size="12px"><text x="6.5" y="162.78">-description : String</text></g><g fill="#000000" font-family="Helvetica" font-size="12px"><text x="6.5" y="178.78">-baseType : Enum</text></g><rect x="139" y="213" width="182" height="44" fill="#ffd966" stroke="#000000" pointer-events="none"/><path d="M 139 230.28 L 321 230.28" fill="none" stroke="#000000" stroke-miterlimit="10" pointer-events="none"/><g fill="#000000" font-family="Helvetica" font-weight="bold" text-anchor="middle" font-size="12px"><text x="229.5" y="225.5">Document</text></g><g fill="#000000" font-family="Helvetica" font-size="12px"><text x="145.5" y="244.78">-currentVersion : Version</text></g><path d="M 80 205.12 L 80 225 Q 80 235 90 235 L 139 235" fill="none" stroke="#000000" stroke-miterlimit="10" pointer-events="none"/><path d="M 80 193.12 L 86 205.12 L 74 205.12 Z" fill="none" stroke="#000000" stroke-miterlimit="10" pointer-events="none"/><rect x="48" y="0" width="225" height="75" fill="#7acff5" stroke="#000000" pointer-events="none"/><path d="M 48 17.28 L 273 17.28" fill="none" stroke="#000000" stroke-miterlimit="10" pointer-events="none"/><g fill="#000000" font-family="Helvetica" font-weight="bold" text-anchor="middle" font-size="12px"><text x="160" y="12.5">OIHDataRecord</text></g><g fill="#000000" font-family="Helvetica" font-size="12px"><text x="54.5" y="31.78">-oihUid</text></g><g fill="#000000" font-family="Helvetica" font-size="12px"><text x="54.5" y="47.78">-creation : Modification</text></g><g fill="#000000" font-family="Helvetica" font-size="12px"><text x="54.5" y="63.78">-lastModification : Modification</text></g><rect x="374" y="99" width="278" height="156" fill="#7acff5" stroke="#000000" pointer-events="none"/><path d="M 374 116.28 L 652 116.28" fill="none" stroke="#000000" stroke-miterlimit="10" pointer-events="none"/><g fill="#000000" font-family="Helvetica" font-weight="bold" text-anchor="middle" font-size="12px"><text x="512.5" y="111.5">Version</text></g><g fill="#000000" font-family="Helvetica" font-size="12px"><text x="380.5" y="130.78">-label : String</text></g><g fill="#000000" font-family="Helvetica" font-size="12px"><text x="380.5" y="146.78">-comment : String</text></g><g fill="#000000" font-family="Helvetica" font-size="12px"><text x="380.5" y="162.78">-creation : Modification</text></g><g fill="#000000" font-family="Helvetica" font-size="12px"><text x="380.5" y="178.78">-size : Number</text></g><g fill="#000000" font-family="Helvetica" font-size="12px"><text x="380.5" y="194.78">-mimeType : String</text></g><g fill="#000000" font-family="Helvetica" font-size="12px"><text x="380.5" y="210.78">-url : String</text></g><g fill="#000000" font-family="Helvetica" font-size="12px"><text x="380.5" y="226.78">-uid : String</text></g><g fill="#000000" font-family="Helvetica" font-size="12px"><text x="380.5" y="242.78">-extension : String</text></g><path d="M 321 235 L 338 235 Q 348 235 348 225 L 348 187 Q 348 177 358 177 L 374 177" fill="none" stroke="#000000" stroke-miterlimit="10" pointer-events="none"/><g fill="#000000" font-family="Helvetica" text-anchor="middle" font-size="11px"><text x="358.5" y="210">0..*</text></g><path d="M 161 88.12 L 161 95.56 Q 161 103 161 109 L 161 115" fill="none" stroke="#000000" stroke-miterlimit="10" pointer-events="none"/><path d="M 161 76.12 L 167 88.12 L 155 88.12 Z" fill="none" stroke="#000000" stroke-miterlimit="10" pointer-events="none"/><path d="M 80 205.12 L 80 225 Q 80 235 90 235 L 139 235" fill="none" stroke="#000000" stroke-miterlimit="10" pointer-events="none"/><path d="M 80 193.12 L 86 205.12 L 74 205.12 Z" fill="none" stroke="#000000" stroke-miterlimit="10" pointer-events="none"/><path d="M 161 88.12 L 161 95.56 Q 161 103 161 109 L 161 115" fill="none" stroke="#000000" stroke-miterlimit="10" pointer-events="none"/><path d="M 161 76.12 L 167 88.12 L 155 88.12 Z" fill="none" stroke="#000000" stroke-miterlimit="10" pointer-events="none"/><path d="M 80 205.12 L 80 225 Q 80 235 90 235 L 139 235" fill="none" stroke="#000000" stroke-miterlimit="10" pointer-events="none"/><path d="M 80 193.12 L 86 205.12 L 74 205.12 Z" fill="none" stroke="#000000" stroke-miterlimit="10" pointer-events="none"/><path d="M 321 235 L 338 235 Q 348 235 348 225 L 348 187 Q 348 177 358 177 L 374 177" fill="none" stroke="#000000" stroke-miterlimit="10" pointer-events="none"/><g fill="#000000" font-family="Helvetica" text-anchor="middle" font-size="11px"><text x="358.5" y="210">0..*</text></g><path d="M 161 88.12 L 161 95.56 Q 161 103 161 109 L 161 115" fill="none" stroke="#000000" stroke-miterlimit="10" pointer-events="none"/><path d="M 161 76.12 L 167 88.12 L 155 88.12 Z" fill="none" stroke="#000000" stroke-miterlimit="10" pointer-events="none"/><path d="M 321 235 L 338 235 Q 348 235 348 225 L 348 187 Q 348 177 358 177 L 374 177" fill="none" stroke="#000000" stroke-miterlimit="10" pointer-events="none"/><g fill="#000000" font-family="Helvetica" text-anchor="middle" font-size="11px"><text x="358.5" y="210">0..*</text></g></g></svg>