<svg xmlns="http://www.w3.org/2000/svg" xmlns:xlink="http://www.w3.org/1999/xlink" width="669px" height="244px" version="1.1"><defs/><g transform="translate(0.5,0.5)"><rect x="0" y="81" width="321" height="107" fill="#7acff5" stroke="#000000" pointer-events="none"/><path d="M 0 98.2 L 321 98.2" fill="none" stroke="#000000" stroke-miterlimit="10" pointer-events="none"/><g fill="#000000" font-family="Helvetica" font-weight="bold" text-anchor="middle" font-size="12px"><text x="160" y="93.33">Object</text></g><g fill="#000000" font-family="Helvetica" font-size="12px"><text x="6.5" y="112.7">-name</text></g><g fill="#000000" font-family="Helvetica" font-size="12px"><text x="6.5" y="128.7">-description</text></g><g fill="#000000" font-family="Helvetica" font-size="12px"><text x="6.5" y="144.7">-baseType</text></g><g fill="#000000" font-family="Helvetica" font-size="12px"><text x="6.5" y="160.7">-creation</text></g><g fill="#000000" font-family="Helvetica" font-size="12px"><text x="6.5" y="176.7">-lastModification</text></g><rect x="126" y="198" width="182" height="44" fill="#7acff5" stroke="#000000" pointer-events="none"/><path d="M 126 215.21 L 308 215.21" fill="none" stroke="#000000" stroke-miterlimit="10" pointer-events="none"/><g fill="#000000" font-family="Helvetica" font-weight="bold" text-anchor="middle" font-size="12px"><text x="216.5" y="210.33">Document</text></g><g fill="#000000" font-family="Helvetica" font-size="12px"><text x="132.5" y="229.71">-version</text></g><path d="M 80.67 201.12 L 80.67 210.39 Q 80.67 219.67 90.67 219.67 L 125.67 219.67" fill="none" stroke="#000000" stroke-miterlimit="10" pointer-events="none"/><path d="M 80.67 189.12 L 86.67 201.12 L 74.67 201.12 Z" fill="none" stroke="#000000" stroke-miterlimit="10" pointer-events="none"/><rect x="61" y="0" width="199" height="40" fill="#7acff5" stroke="#000000" pointer-events="none"/><path d="M 61 17.21 L 260 17.21" fill="none" stroke="#000000" stroke-miterlimit="10" pointer-events="none"/><g fill="#000000" font-family="Helvetica" font-weight="bold" text-anchor="middle" font-size="12px"><text x="160" y="12.33">OIHDataRecord</text></g><path d="M 160.5 53.12 L 160.5 81" fill="none" stroke="#000000" stroke-miterlimit="10" pointer-events="none"/><path d="M 160.5 41.12 L 166.5 53.12 L 154.5 53.12 Z" fill="none" stroke="#000000" stroke-miterlimit="10" pointer-events="none"/><rect x="346" y="82" width="321" height="137" fill="#7acff5" stroke="#000000" pointer-events="none"/><path d="M 346 99.21 L 667 99.21" fill="none" stroke="#000000" stroke-miterlimit="10" pointer-events="none"/><g fill="#000000" font-family="Helvetica" font-weight="bold" text-anchor="middle" font-size="12px"><text x="506" y="94.33">Version</text></g><g fill="#000000" font-family="Helvetica" font-size="12px"><text x="352.5" y="113.71">-label</text></g><g fill="#000000" font-family="Helvetica" font-size="12px"><text x="352.5" y="129.71">-comment</text></g><g fill="#000000" font-family="Helvetica" font-size="12px"><text x="352.5" y="145.71">-creation</text></g><g fill="#000000" font-family="Helvetica" font-size="12px"><text x="352.5" y="161.71">-size</text></g><g fill="#000000" font-family="Helvetica" font-size="12px"><text x="352.5" y="177.71">-mimeType</text></g><g fill="#000000" font-family="Helvetica" font-size="12px"><text x="352.5" y="193.71">-url</text></g><g fill="#000000" font-family="Helvetica" font-size="12px"><text x="352.5" y="209.71">-uid</text></g><path d="M 308.17 219.67 L 346 206.47" fill="none" stroke="#000000" stroke-miterlimit="10" pointer-events="none"/><path d="M 80.67 201.12 L 80.67 210.39 Q 80.67 219.67 90.67 219.67 L 125.67 219.67" fill="none" stroke="#000000" stroke-miterlimit="10" pointer-events="none"/><path d="M 80.67 189.12 L 86.67 201.12 L 74.67 201.12 Z" fill="none" stroke="#000000" stroke-miterlimit="10" pointer-events="none"/><path d="M 160.5 53.12 L 160.5 81" fill="none" stroke="#000000" stroke-miterlimit="10" pointer-events="none"/><path d="M 160.5 41.12 L 166.5 53.12 L 154.5 53.12 Z" fill="none" stroke="#000000" stroke-miterlimit="10" pointer-events="none"/><path d="M 80.67 201.12 L 80.67 210.39 Q 80.67 219.67 90.67 219.67 L 125.67 219.67" fill="none" stroke="#000000" stroke-miterlimit="10" pointer-events="none"/><path d="M 80.67 189.12 L 86.67 201.12 L 74.67 201.12 Z" fill="none" stroke="#000000" stroke-miterlimit="10" pointer-events="none"/><path d="M 308.17 219.67 L 346 206.47" fill="none" stroke="#000000" stroke-miterlimit="10" pointer-events="none"/><path d="M 160.5 53.12 L 160.5 81" fill="none" stroke="#000000" stroke-miterlimit="10" pointer-events="none"/><path d="M 160.5 41.12 L 166.5 53.12 L 154.5 53.12 Z" fill="none" stroke="#000000" stroke-miterlimit="10" pointer-events="none"/><path d="M 308.17 219.67 L 346 206.47" fill="none" stroke="#000000" stroke-miterlimit="10" pointer-events="none"/></g></svg>