<svg xmlns="http://www.w3.org/2000/svg" xmlns:xlink="http://www.w3.org/1999/xlink" width="449px" height="665px" version="1.1"><defs/><g transform="translate(0.5,0.5)"><rect x="0" y="0" width="133" height="121.28" fill="#7acff5" stroke="#000000" pointer-events="none"/><path d="M 0 17.28 L 133 17.28" fill="none" stroke="#000000" stroke-miterlimit="10" pointer-events="none"/><g fill="#000000" font-family="Helvetica" font-weight="bold" text-anchor="middle" font-size="12px"><text x="66" y="12.5">MetadataType</text></g><g fill="#000000" font-family="Helvetica" font-size="12px"><text x="6.5" y="31.78">-uid</text></g><g fill="#000000" font-family="Helvetica" font-size="12px"><text x="6.5" y="47.78">-name</text></g><g fill="#000000" font-family="Helvetica" font-size="12px"><text x="6.5" y="63.78">-description</text></g><g fill="#000000" font-family="Helvetica" font-size="12px"><text x="6.5" y="79.78">-baseType</text></g><g fill="#000000" font-family="Helvetica" font-size="12px"><text x="6.5" y="95.78">-isFulltextIndexed</text></g><g fill="#000000" font-family="Helvetica" font-size="12px"><text x="6.5" y="111.78">-allowedChildEntries</text></g><rect x="22" y="164" width="89" height="185.28" fill="#7acff5" stroke="#000000" pointer-events="none"/><path d="M 22 181.28 L 111 181.28" fill="none" stroke="#000000" stroke-miterlimit="10" pointer-events="none"/><g fill="#000000" font-family="Helvetica" font-weight="bold" text-anchor="middle" font-size="12px"><text x="66" y="176.5">Property</text></g><g fill="#000000" font-family="Helvetica" font-size="12px"><text x="28.5" y="195.78">-uid</text></g><g fill="#000000" font-family="Helvetica" font-size="12px"><text x="28.5" y="211.78">-name</text></g><g fill="#000000" font-family="Helvetica" font-size="12px"><text x="28.5" y="227.78">-description</text></g><g fill="#000000" font-family="Helvetica" font-size="12px"><text x="28.5" y="243.78">-propertyType</text></g><g fill="#000000" font-family="Helvetica" font-size="12px"><text x="28.5" y="259.78">-cardinalety</text></g><g fill="#000000" font-family="Helvetica" font-size="12px"><text x="28.5" y="275.78">-value</text></g><g fill="#000000" font-family="Helvetica" font-size="12px"><text x="28.5" y="291.78">-defaultValue</text></g><g fill="#000000" font-family="Helvetica" font-size="12px"><text x="28.5" y="307.78">-isReadonly</text></g><g fill="#000000" font-family="Helvetica" font-size="12px"><text x="28.5" y="323.78">-isQueryable</text></g><rect x="99" y="372" width="138" height="40" fill="#7acff5" stroke="#000000" pointer-events="none"/><path d="M 99 389.28 L 237 389.28" fill="none" stroke="#000000" stroke-miterlimit="10" pointer-events="none"/><g fill="#000000" font-family="Helvetica" font-weight="bold" text-anchor="middle" font-size="12px"><text x="167.5" y="384.5">StringProperty</text></g><rect x="99" y="522" width="138" height="40" fill="#7acff5" stroke="#000000" pointer-events="none"/><path d="M 99 539.28 L 237 539.28" fill="none" stroke="#000000" stroke-miterlimit="10" pointer-events="none"/><g fill="#000000" font-family="Helvetica" font-weight="bold" text-anchor="middle" font-size="12px"><text x="167.5" y="534.5">DateProperty</text></g><rect x="99" y="421" width="138" height="40" fill="#7acff5" stroke="#000000" pointer-events="none"/><path d="M 99 438.28 L 237 438.28" fill="none" stroke="#000000" stroke-miterlimit="10" pointer-events="none"/><g fill="#000000" font-family="Helvetica" font-weight="bold" text-anchor="middle" font-size="12px"><text x="167.5" y="433.5">BooleanProperty</text></g><rect x="99" y="471" width="138" height="40" fill="#7acff5" stroke="#000000" pointer-events="none"/><path d="M 99 488.28 L 237 488.28" fill="none" stroke="#000000" stroke-miterlimit="10" pointer-events="none"/><g fill="#000000" font-family="Helvetica" font-weight="bold" text-anchor="middle" font-size="12px"><text x="167.5" y="483.5">NumericProperty</text></g><rect x="99" y="571" width="138" height="40" fill="#7acff5" stroke="#000000" pointer-events="none"/><path d="M 99 588.28 L 237 588.28" fill="none" stroke="#000000" stroke-miterlimit="10" pointer-events="none"/><g fill="#000000" font-family="Helvetica" font-weight="bold" text-anchor="middle" font-size="12px"><text x="167.5" y="583.5">ObjectProperty</text></g><rect x="99" y="624" width="138" height="40" fill="#7acff5" stroke="#000000" pointer-events="none"/><path d="M 99 641.28 L 237 641.28" fill="none" stroke="#000000" stroke-miterlimit="10" pointer-events="none"/><g fill="#000000" font-family="Helvetica" font-weight="bold" text-anchor="middle" font-size="12px"><text x="167.5" y="636.5">UserProperty</text></g><path d="M 67 362.12 L 67 382 Q 67 392 77 392 L 99 392" fill="none" stroke="#000000" stroke-miterlimit="10" pointer-events="none"/><path d="M 67 350.12 L 73 362.12 L 61 362.12 Z" fill="none" stroke="#000000" stroke-miterlimit="10" pointer-events="none"/><path d="M 67 362.4 L 67 431 Q 67 441 77 441 L 99 441" fill="none" stroke="#000000" stroke-miterlimit="10" pointer-events="none"/><path d="M 67 350.4 L 73 362.4 L 61 362.4 Z" fill="none" stroke="#000000" stroke-miterlimit="10" pointer-events="none"/><path d="M 67 362.12 L 67 481 Q 67 491 77 491 L 99 491" fill="none" stroke="#000000" stroke-miterlimit="10" pointer-events="none"/><path d="M 67 350.12 L 73 362.12 L 61 362.12 Z" fill="none" stroke="#000000" stroke-miterlimit="10" pointer-events="none"/><path d="M 67 362.12 L 67 532 Q 67 542 77 542 L 99 542" fill="none" stroke="#000000" stroke-miterlimit="10" pointer-events="none"/><path d="M 67 350.12 L 73 362.12 L 61 362.12 Z" fill="none" stroke="#000000" stroke-miterlimit="10" pointer-events="none"/><path d="M 67 362.12 L 67 581 Q 67 591 77 591 L 99 591" fill="none" stroke="#000000" stroke-miterlimit="10" pointer-events="none"/><path d="M 67 350.12 L 73 362.12 L 61 362.12 Z" fill="none" stroke="#000000" stroke-miterlimit="10" pointer-events="none"/><path d="M 67 362.12 L 67 634 Q 67 644 77 644 L 99 644" fill="none" stroke="#000000" stroke-miterlimit="10" pointer-events="none"/><path d="M 67 350.12 L 73 362.12 L 61 362.12 Z" fill="none" stroke="#000000" stroke-miterlimit="10" pointer-events="none"/><rect x="268" y="323" width="180" height="137.28" fill="#7acff5" stroke="#000000" pointer-events="none"/><path d="M 268 340.28 L 448 340.28" fill="none" stroke="#000000" stroke-miterlimit="10" pointer-events="none"/><g fill="#000000" font-family="Helvetica" font-weight="bold" text-anchor="middle" font-size="12px"><text x="357.5" y="335.5">Validation</text></g><g fill="#000000" font-family="Helvetica" font-size="12px"><text x="274.5" y="354.78">-isRequired</text></g><g fill="#000000" font-family="Helvetica" font-size="12px"><text x="274.5" y="370.78">-minLength</text></g><g fill="#000000" font-family="Helvetica" font-size="12px"><text x="274.5" y="386.78">-maxLength</text></g><g fill="#000000" font-family="Helvetica" font-size="12px"><text x="274.5" y="402.78">-regex</text></g><g fill="#000000" font-family="Helvetica" font-size="12px"><text x="274.5" y="418.78">-isOpenChoice</text></g><g fill="#000000" font-family="Helvetica" font-size="12px"><text x="274.5" y="434.78">-minItems (cardinalety: list)</text></g><g fill="#000000" font-family="Helvetica" font-size="12px"><text x="274.5" y="450.78">-maxItems (cardinalety: list)</text></g><path d="M 111 303 L 303 303 Q 313 303 313 313 L 313 323" fill="none" stroke="#000000" stroke-miterlimit="10" pointer-events="none"/><rect x="211" y="181" width="158" height="57" fill="#7acff5" stroke="#000000" pointer-events="none"/><path d="M 211 198.28 L 369 198.28" fill="none" stroke="#000000" stroke-miterlimit="10" pointer-events="none"/><g fill="#000000" font-family="Helvetica" font-weight="bold" text-anchor="middle" font-size="12px"><text x="289.5" y="193.5">Choice</text></g><g fill="#000000" font-family="Helvetica" font-size="12px"><text x="217.5" y="212.78">-displayName</text></g><g fill="#000000" font-family="Helvetica" font-size="12px"><text x="217.5" y="228.78">-value</text></g><path d="M 124.71 210 L 211 210" fill="none" stroke="#000000" stroke-miterlimit="10" pointer-events="none"/><path d="M 111.71 210 L 118.21 203.5 L 124.71 210 L 118.21 216.5 Z" fill="#000000" stroke="#000000" stroke-miterlimit="10" pointer-events="none"/><path d="M 290 251.71 L 290 259.85 Q 290 268 300 268 L 389 268 Q 399 268 399 258 L 399 220 Q 399 210 389 210 L 369 210" fill="none" stroke="#000000" stroke-miterlimit="10" pointer-events="none"/><path d="M 290 238.71 L 296.5 245.21 L 290 251.71 L 283.5 245.21 Z" fill="#000000" stroke="#000000" stroke-miterlimit="10" pointer-events="none"/><path d="M 67 134.71 L 67 164" fill="none" stroke="#000000" stroke-miterlimit="10" pointer-events="none"/><path d="M 67 121.71 L 73.5 128.21 L 67 134.71 L 60.5 128.21 Z" fill="#000000" stroke="#000000" stroke-miterlimit="10" pointer-events="none"/><path d="M 67 134.71 L 67 164" fill="none" stroke="#000000" stroke-miterlimit="10" pointer-events="none"/><path d="M 67 121.71 L 73.5 128.21 L 67 134.71 L 60.5 128.21 Z" fill="#000000" stroke="#000000" stroke-miterlimit="10" pointer-events="none"/><path d="M 67 362.12 L 67 382 Q 67 392 77 392 L 99 392" fill="none" stroke="#000000" stroke-miterlimit="10" pointer-events="none"/><path d="M 67 350.12 L 73 362.12 L 61 362.12 Z" fill="none" stroke="#000000" stroke-miterlimit="10" pointer-events="none"/><path d="M 67 362.4 L 67 431 Q 67 441 77 441 L 99 441" fill="none" stroke="#000000" stroke-miterlimit="10" pointer-events="none"/><path d="M 67 350.4 L 73 362.4 L 61 362.4 Z" fill="none" stroke="#000000" stroke-miterlimit="10" pointer-events="none"/><path d="M 67 362.12 L 67 481 Q 67 491 77 491 L 99 491" fill="none" stroke="#000000" stroke-miterlimit="10" pointer-events="none"/><path d="M 67 350.12 L 73 362.12 L 61 362.12 Z" fill="none" stroke="#000000" stroke-miterlimit="10" pointer-events="none"/><path d="M 67 362.12 L 67 532 Q 67 542 77 542 L 99 542" fill="none" stroke="#000000" stroke-miterlimit="10" pointer-events="none"/><path d="M 67 350.12 L 73 362.12 L 61 362.12 Z" fill="none" stroke="#000000" stroke-miterlimit="10" pointer-events="none"/><path d="M 67 362.12 L 67 581 Q 67 591 77 591 L 99 591" fill="none" stroke="#000000" stroke-miterlimit="10" pointer-events="none"/><path d="M 67 350.12 L 73 362.12 L 61 362.12 Z" fill="none" stroke="#000000" stroke-miterlimit="10" pointer-events="none"/><path d="M 67 362.12 L 67 634 Q 67 644 77 644 L 99 644" fill="none" stroke="#000000" stroke-miterlimit="10" pointer-events="none"/><path d="M 67 350.12 L 73 362.12 L 61 362.12 Z" fill="none" stroke="#000000" stroke-miterlimit="10" pointer-events="none"/><path d="M 111 303 L 303 303 Q 313 303 313 313 L 313 323" fill="none" stroke="#000000" stroke-miterlimit="10" pointer-events="none"/><path d="M 124.71 210 L 211 210" fill="none" stroke="#000000" stroke-miterlimit="10" pointer-events="none"/><path d="M 111.71 210 L 118.21 203.5 L 124.71 210 L 118.21 216.5 Z" fill="#000000" stroke="#000000" stroke-miterlimit="10" pointer-events="none"/><path d="M 67 134.71 L 67 164" fill="none" stroke="#000000" stroke-miterlimit="10" pointer-events="none"/><path d="M 67 121.71 L 73.5 128.21 L 67 134.71 L 60.5 128.21 Z" fill="#000000" stroke="#000000" stroke-miterlimit="10" pointer-events="none"/><path d="M 67 362.12 L 67 382 Q 67 392 77 392 L 99 392" fill="none" stroke="#000000" stroke-miterlimit="10" pointer-events="none"/><path d="M 67 350.12 L 73 362.12 L 61 362.12 Z" fill="none" stroke="#000000" stroke-miterlimit="10" pointer-events="none"/><path d="M 67 362.12 L 67 532 Q 67 542 77 542 L 99 542" fill="none" stroke="#000000" stroke-miterlimit="10" pointer-events="none"/><path d="M 67 350.12 L 73 362.12 L 61 362.12 Z" fill="none" stroke="#000000" stroke-miterlimit="10" pointer-events="none"/><path d="M 67 362.4 L 67 431 Q 67 441 77 441 L 99 441" fill="none" stroke="#000000" stroke-miterlimit="10" pointer-events="none"/><path d="M 67 350.4 L 73 362.4 L 61 362.4 Z" fill="none" stroke="#000000" stroke-miterlimit="10" pointer-events="none"/><path d="M 67 362.12 L 67 481 Q 67 491 77 491 L 99 491" fill="none" stroke="#000000" stroke-miterlimit="10" pointer-events="none"/><path d="M 67 350.12 L 73 362.12 L 61 362.12 Z" fill="none" stroke="#000000" stroke-miterlimit="10" pointer-events="none"/><path d="M 67 362.12 L 67 581 Q 67 591 77 591 L 99 591" fill="none" stroke="#000000" stroke-miterlimit="10" pointer-events="none"/><path d="M 67 350.12 L 73 362.12 L 61 362.12 Z" fill="none" stroke="#000000" stroke-miterlimit="10" pointer-events="none"/><path d="M 67 362.12 L 67 634 Q 67 644 77 644 L 99 644" fill="none" stroke="#000000" stroke-miterlimit="10" pointer-events="none"/><path d="M 67 350.12 L 73 362.12 L 61 362.12 Z" fill="none" stroke="#000000" stroke-miterlimit="10" pointer-events="none"/><path d="M 111 303 L 303 303 Q 313 303 313 313 L 313 323" fill="none" stroke="#000000" stroke-miterlimit="10" pointer-events="none"/><path d="M 124.71 210 L 211 210" fill="none" stroke="#000000" stroke-miterlimit="10" pointer-events="none"/><path d="M 111.71 210 L 118.21 203.5 L 124.71 210 L 118.21 216.5 Z" fill="#000000" stroke="#000000" stroke-miterlimit="10" pointer-events="none"/><path d="M 290 251.71 L 290 259.85 Q 290 268 300 268 L 389 268 Q 399 268 399 258 L 399 220 Q 399 210 389 210 L 369 210" fill="none" stroke="#000000" stroke-miterlimit="10" pointer-events="none"/><path d="M 290 238.71 L 296.5 245.21 L 290 251.71 L 283.5 245.21 Z" fill="#000000" stroke="#000000" stroke-miterlimit="10" pointer-events="none"/></g></svg>