<svg xmlns="http://www.w3.org/2000/svg" xmlns:xlink="http://www.w3.org/1999/xlink" xmlns:lucid="lucid" width="1986" height="884"><g transform="translate(3080 -440)" lucid:page-tab-id="0_0"><path d="M-2054 725c0-2.76 2.24-5 5-5h404c2.76 0 5 2.24 5 5v478c0 2.76-2.24 5-5 5h-404c-2.76 0-5-2.24-5-5z" fill="#fff"/><path d="M-2054 725c0-2.76 2.24-5 5-5h404c2.76 0 5 2.24 5 5v478c0 2.76-2.24 5-5 5h-404c-2.76 0-5-2.24-5-5zM-2054 760h414M-1978.67 760v448M-1744 760v448" stroke="#666" stroke-width="2" fill="none"/><use xlink:href="#a" transform="matrix(1,0,0,1,-2044,720) translate(144.525 23.6)"/><use xlink:href="#b" transform="matrix(1,0,0,1,-2049,762.5) translate(21.525 17.1)"/><use xlink:href="#c" transform="matrix(1,0,0,1,-1973.6666666666667,762.5) translate(43.075 17.1)"/><use xlink:href="#d" transform="matrix(1,0,0,1,-1739,762.5) translate(25.05 17.1)"/><use xlink:href="#e" transform="matrix(1,0,0,1,-2049,794.5) translate(21 17.1)"/><use xlink:href="#f" transform="matrix(1,0,0,1,-1973.6666666666667,794.5) translate(48.075 17.1)"/><use xlink:href="#d" transform="matrix(1,0,0,1,-1739,794.5) translate(25.05 17.1)"/><use xlink:href="#g" transform="matrix(1,0,0,1,-1973.6666666666667,826.5) translate(82.525 17.1)"/><use xlink:href="#h" transform="matrix(1,0,0,1,-1739,826.5) translate(9.574999999999996 17.1)"/><use xlink:href="#i" transform="matrix(1,0,0,1,-1973.6666666666667,858.5) translate(90.025 17.1)"/><use xlink:href="#j" transform="matrix(1,0,0,1,-1739,858.5) translate(25.05 17.1)"/><use xlink:href="#k" transform="matrix(1,0,0,1,-1973.6666666666667,890.5) translate(82.05 17.1)"/><use xlink:href="#l" transform="matrix(1,0,0,1,-1739,890.5) translate(26.55 17.1)"/><use xlink:href="#m" transform="matrix(1,0,0,1,-1973.6666666666667,922.5) translate(41.099999999999994 17.1)"/><use xlink:href="#l" transform="matrix(1,0,0,1,-1739,922.5) translate(26.55 17.1)"/><use xlink:href="#n" transform="matrix(1,0,0,1,-1973.6666666666667,954.5) translate(72.05 17.1)"/><use xlink:href="#j" transform="matrix(1,0,0,1,-1739,954.5) translate(25.05 17.1)"/><use xlink:href="#o" transform="matrix(1,0,0,1,-1973.6666666666667,986.5) translate(67.05 17.1)"/><use xlink:href="#j" transform="matrix(1,0,0,1,-1739,986.5) translate(25.05 17.1)"/><use xlink:href="#p" transform="matrix(1,0,0,1,-1973.6666666666667,1018.5) translate(99.025 17.1)"/><use xlink:href="#j" transform="matrix(1,0,0,1,-1739,1018.5) translate(25.05 17.1)"/><use xlink:href="#q" transform="matrix(1,0,0,1,-1973.6666666666667,1050.5) translate(86.575 17.1)"/><use xlink:href="#j" transform="matrix(1,0,0,1,-1739,1050.5) translate(25.05 17.1)"/><use xlink:href="#r" transform="matrix(1,0,0,1,-1973.6666666666667,1082.5) translate(83.025 17.1)"/><use xlink:href="#j" transform="matrix(1,0,0,1,-1739,1082.5) translate(25.05 17.1)"/><use xlink:href="#s" transform="matrix(1,0,0,1,-1973.6666666666667,1114.5) translate(61.55 17.1)"/><use xlink:href="#j" transform="matrix(1,0,0,1,-1739,1114.5) translate(25.05 17.1)"/><use xlink:href="#t" transform="matrix(1,0,0,1,-1973.6666666666667,1146.5) translate(93 17.1)"/><use xlink:href="#j" transform="matrix(1,0,0,1,-1739,1146.5) translate(25.05 17.1)"/><use xlink:href="#u" transform="matrix(1,0,0,1,-2049,1178.5) translate(21.525 17.1)"/><use xlink:href="#v" transform="matrix(1,0,0,1,-1973.6666666666667,1178.5) translate(64.6 17.1)"/><use xlink:href="#w" transform="matrix(1,0,0,1,-1739,1178.5) translate(9.574999999999996 17.1)"/><path d="M-2534 725c0-2.76 2.24-5 5-5h404c2.76 0 5 2.24 5 5v414c0 2.76-2.24 5-5 5h-404c-2.76 0-5-2.24-5-5z" fill="#fff"/><path d="M-2534 725c0-2.76 2.24-5 5-5h404c2.76 0 5 2.24 5 5v414c0 2.76-2.24 5-5 5h-404c-2.76 0-5-2.24-5-5zM-2534 760h414M-2450.67 760v384M-2224 760v384" stroke="#666" stroke-width="2" fill="none"/><use xlink:href="#x" transform="matrix(1,0,0,1,-2524,720) translate(146.525 23.6)"/><use xlink:href="#b" transform="matrix(1,0,0,1,-2529,762.5) translate(25.525 17.1)"/><use xlink:href="#c" transform="matrix(1,0,0,1,-2445.666666666667,762.5) translate(39.075 17.1)"/><use xlink:href="#d" transform="matrix(1,0,0,1,-2219,762.5) translate(25.05 17.1)"/><use xlink:href="#e" transform="matrix(1,0,0,1,-2529,794.5) translate(25 17.1)"/><use xlink:href="#f" transform="matrix(1,0,0,1,-2445.666666666667,794.5) translate(44.075 17.1)"/><use xlink:href="#d" transform="matrix(1,0,0,1,-2219,794.5) translate(25.05 17.1)"/><use xlink:href="#g" transform="matrix(1,0,0,1,-2445.666666666667,826.5) translate(78.525 17.1)"/><use xlink:href="#h" transform="matrix(1,0,0,1,-2219,826.5) translate(9.574999999999996 17.1)"/><use xlink:href="#y" transform="matrix(1,0,0,1,-2445.666666666667,858.5) translate(87.07499999999999 17.1)"/><use xlink:href="#l" transform="matrix(1,0,0,1,-2219,858.5) translate(26.55 17.1)"/><use xlink:href="#z" transform="matrix(1,0,0,1,-2445.666666666667,890.5) translate(82.07499999999999 17.1)"/><use xlink:href="#l" transform="matrix(1,0,0,1,-2219,890.5) translate(26.55 17.1)"/><use xlink:href="#A" transform="matrix(1,0,0,1,-2445.666666666667,922.5) translate(83.5 17.1)"/><use xlink:href="#l" transform="matrix(1,0,0,1,-2219,922.5) translate(26.55 17.1)"/><use xlink:href="#B" transform="matrix(1,0,0,1,-2445.666666666667,954.5) translate(85.525 17.1)"/><use xlink:href="#l" transform="matrix(1,0,0,1,-2219,954.5) translate(26.55 17.1)"/><use xlink:href="#C" transform="matrix(1,0,0,1,-2445.666666666667,986.5) translate(96.5 17.1)"/><use xlink:href="#l" transform="matrix(1,0,0,1,-2219,986.5) translate(26.55 17.1)"/><use xlink:href="#D" transform="matrix(1,0,0,1,-2445.666666666667,1018.5) translate(92.025 17.1)"/><use xlink:href="#l" transform="matrix(1,0,0,1,-2219,1018.5) translate(26.55 17.1)"/><use xlink:href="#E" transform="matrix(1,0,0,1,-2445.666666666667,1050.5) translate(91.5 17.1)"/><use xlink:href="#F" transform="matrix(1,0,0,1,-2219,1050.5) translate(23.025 17.1)"/><use xlink:href="#G" transform="matrix(1,0,0,1,-2445.666666666667,1082.5) translate(85.55 17.1)"/><use xlink:href="#F" transform="matrix(1,0,0,1,-2219,1082.5) translate(23.025 17.1)"/><use xlink:href="#u" transform="matrix(1,0,0,1,-2529,1114.5) translate(25.525 17.1)"/><use xlink:href="#v" transform="matrix(1,0,0,1,-2445.666666666667,1114.5) translate(60.6 17.1)"/><use xlink:href="#w" transform="matrix(1,0,0,1,-2219,1114.5) translate(9.574999999999996 17.1)"/><path d="M-2254 465c0-2.76 2.24-5 5-5h333c2.76 0 5 2.24 5 5v158c0 2.76-2.24 5-5 5h-333c-2.76 0-5-2.24-5-5z" fill="#fff"/><path d="M-2254 532h343v32h-343zM-2254 596h343v32h-343z" fill="#e6e6e6"/><path d="M-2254 460h343v40h-343z" fill="#ccc"/><path d="M-2254 465c0-2.76 2.24-5 5-5h333c2.76 0 5 2.24 5 5v158c0 2.76-2.24 5-5 5h-333c-2.76 0-5-2.24-5-5zM-2254 500h343M-2190.67 500v128M-2017.33 500v128" stroke="#666" stroke-width="2" fill="none"/><use xlink:href="#H" transform="matrix(1,0,0,1,-2244,460) translate(100.725 23.6)"/><use xlink:href="#e" transform="matrix(1,0,0,1,-2249,502.5) translate(15 17.1)"/><use xlink:href="#I" transform="matrix(1,0,0,1,-2185.6666666666665,502.5) translate(15.075000000000003 17.1)"/><use xlink:href="#d" transform="matrix(1,0,0,1,-2012.3333333333335,502.5) translate(26.55 17.1)"/><use xlink:href="#u" transform="matrix(1,0,0,1,-2249,534.5) translate(15.524999999999999 17.1)"/><use xlink:href="#f" transform="matrix(1,0,0,1,-2185.6666666666665,534.5) translate(17.575000000000003 17.1)"/><use xlink:href="#F" transform="matrix(1,0,0,1,-2012.3333333333335,534.5) translate(24.525 17.1)"/><use xlink:href="#g" transform="matrix(1,0,0,1,-2185.6666666666665,566.5) translate(52.025 17.1)"/><use xlink:href="#h" transform="matrix(1,0,0,1,-2012.3333333333335,566.5) translate(11.074999999999996 17.1)"/><use xlink:href="#J" transform="matrix(1,0,0,1,-2249,598.5) translate(15 17.1)"/><use xlink:href="#K" transform="matrix(1,0,0,1,-2185.6666666666665,598.5) translate(34.1 17.1)"/><use xlink:href="#h" transform="matrix(1,0,0,1,-2012.3333333333335,598.5) translate(11.074999999999996 17.1)"/><path d="M-3060 725c0-2.76 2.24-5 5-5h450c2.76 0 5 2.24 5 5v574c0 2.76-2.24 5-5 5h-450c-2.76 0-5-2.24-5-5z" fill="#fff"/><path d="M-3060 720h460v40h-460z" fill="#ccc"/><path d="M-3060 725c0-2.76 2.24-5 5-5h450c2.76 0 5 2.24 5 5v574c0 2.76-2.24 5-5 5h-450c-2.76 0-5-2.24-5-5zM-3060 760h460M-2976.67 760v544M-2704.67 760v544" stroke="#666" stroke-width="2" fill="none"/><use xlink:href="#L" transform="matrix(1,0,0,1,-3050,720) translate(169.525 23.6)"/><use xlink:href="#b" transform="matrix(1,0,0,1,-3055,762.5) translate(25.525 17.1)"/><use xlink:href="#c" transform="matrix(1,0,0,1,-2971.6666666666665,762.5) translate(61.575 17.1)"/><use xlink:href="#d" transform="matrix(1,0,0,1,-2699.666666666667,762.5) translate(25.55 17.1)"/><use xlink:href="#e" transform="matrix(1,0,0,1,-3055,794.5) translate(25 17.1)"/><use xlink:href="#f" transform="matrix(1,0,0,1,-2971.6666666666665,794.5) translate(66.575 17.1)"/><use xlink:href="#d" transform="matrix(1,0,0,1,-2699.666666666667,794.5) translate(25.55 17.1)"/><use xlink:href="#g" transform="matrix(1,0,0,1,-2971.6666666666665,826.5) translate(101.025 17.1)"/><use xlink:href="#h" transform="matrix(1,0,0,1,-2699.666666666667,826.5) translate(10.074999999999996 17.1)"/><use xlink:href="#M" transform="matrix(1,0,0,1,-2971.6666666666665,858.5) translate(103.025 17.1)"/><use xlink:href="#N" transform="matrix(1,0,0,1,-2699.666666666667,858.5) translate(25.025 17.1)"/><use xlink:href="#O" transform="matrix(1,0,0,1,-2971.6666666666665,890.5) translate(117.05 17.1)"/><use xlink:href="#j" transform="matrix(1,0,0,1,-2699.666666666667,890.5) translate(25.55 17.1)"/><use xlink:href="#P" transform="matrix(1,0,0,1,-2971.6666666666665,922.5) translate(92.6 17.1)"/><use xlink:href="#l" transform="matrix(1,0,0,1,-2699.666666666667,922.5) translate(27.05 17.1)"/><use xlink:href="#Q" transform="matrix(1,0,0,1,-2971.6666666666665,954.5) translate(92.6 17.1)"/><use xlink:href="#l" transform="matrix(1,0,0,1,-2699.666666666667,954.5) translate(27.05 17.1)"/><use xlink:href="#R" transform="matrix(1,0,0,1,-2971.6666666666665,986.5) translate(93.075 17.1)"/><use xlink:href="#j" transform="matrix(1,0,0,1,-2699.666666666667,986.5) translate(25.55 17.1)"/><use xlink:href="#S" transform="matrix(1,0,0,1,-2971.6666666666665,1018.5) translate(94.575 17.1)"/><use xlink:href="#h" transform="matrix(1,0,0,1,-2699.666666666667,1018.5) translate(10.074999999999996 17.1)"/><use xlink:href="#T" transform="matrix(1,0,0,1,-2971.6666666666665,1050.5) translate(100.05 17.1)"/><use xlink:href="#j" transform="matrix(1,0,0,1,-2699.666666666667,1050.5) translate(25.55 17.1)"/><use xlink:href="#U" transform="matrix(1,0,0,1,-2971.6666666666665,1082.5) translate(64.625 17.1)"/><use xlink:href="#j" transform="matrix(1,0,0,1,-2699.666666666667,1082.5) translate(25.55 17.1)"/><use xlink:href="#V" transform="matrix(1,0,0,1,-2971.6666666666665,1114.5) translate(85.55 17.1)"/><use xlink:href="#j" transform="matrix(1,0,0,1,-2699.666666666667,1114.5) translate(25.55 17.1)"/><use xlink:href="#W" transform="matrix(1,0,0,1,-2971.6666666666665,1146.5) translate(94.025 17.1)"/><use xlink:href="#j" transform="matrix(1,0,0,1,-2699.666666666667,1146.5) translate(25.55 17.1)"/><use xlink:href="#X" transform="matrix(1,0,0,1,-2971.6666666666665,1178.5) translate(112.55 17.1)"/><use xlink:href="#F" transform="matrix(1,0,0,1,-2699.666666666667,1178.5) translate(23.525 17.1)"/><use xlink:href="#Y" transform="matrix(1,0,0,1,-2971.6666666666665,1210.5) translate(104.05 17.1)"/><use xlink:href="#j" transform="matrix(1,0,0,1,-2699.666666666667,1210.5) translate(25.55 17.1)"/><use xlink:href="#Z" transform="matrix(1,0,0,1,-2971.6666666666665,1242.5) translate(113.5 17.1)"/><use xlink:href="#j" transform="matrix(1,0,0,1,-2699.666666666667,1242.5) translate(25.55 17.1)"/><use xlink:href="#u" transform="matrix(1,0,0,1,-3055,1274.5) translate(25.525 17.1)"/><use xlink:href="#v" transform="matrix(1,0,0,1,-2971.6666666666665,1274.5) translate(83.1 17.1)"/><use xlink:href="#w" transform="matrix(1,0,0,1,-2699.666666666667,1274.5) translate(10.074999999999996 17.1)"/><path d="M-1574 725c0-2.76 2.24-5 5-5h450c2.76 0 5 2.24 5 5v254c0 2.76-2.24 5-5 5h-450c-2.76 0-5-2.24-5-5z" fill="#fff"/><path d="M-1574 720h460v40h-460z" fill="#ccc"/><path d="M-1574 725c0-2.76 2.24-5 5-5h450c2.76 0 5 2.24 5 5v254c0 2.76-2.24 5-5 5h-450c-2.76 0-5-2.24-5-5zM-1574 760h460M-1492 760v224M-1219.33 760v224" stroke="#666" stroke-width="2" fill="none"/><use xlink:href="#aa" transform="matrix(1,0,0,1,-1564,720) translate(147.075 23.6)"/><use xlink:href="#b" transform="matrix(1,0,0,1,-1569,762.5) translate(24.525 17.1)"/><use xlink:href="#c" transform="matrix(1,0,0,1,-1487,762.5) translate(62.075 17.1)"/><use xlink:href="#d" transform="matrix(1,0,0,1,-1214.3333333333333,762.5) translate(26.05 17.1)"/><use xlink:href="#e" transform="matrix(1,0,0,1,-1569,794.5) translate(24 17.1)"/><use xlink:href="#f" transform="matrix(1,0,0,1,-1487,794.5) translate(67.075 17.1)"/><use xlink:href="#d" transform="matrix(1,0,0,1,-1214.3333333333333,794.5) translate(26.05 17.1)"/><use xlink:href="#g" transform="matrix(1,0,0,1,-1487,826.5) translate(101.525 17.1)"/><use xlink:href="#h" transform="matrix(1,0,0,1,-1214.3333333333333,826.5) translate(10.574999999999996 17.1)"/><use xlink:href="#ab" transform="matrix(1,0,0,1,-1487,858.5) translate(109.025 17.1)"/><use xlink:href="#j" transform="matrix(1,0,0,1,-1214.3333333333333,858.5) translate(26.05 17.1)"/><use xlink:href="#ac" transform="matrix(1,0,0,1,-1487,890.5) translate(87.57499999999999 17.1)"/><use xlink:href="#F" transform="matrix(1,0,0,1,-1214.3333333333333,890.5) translate(24.025 17.1)"/><use xlink:href="#ad" transform="matrix(1,0,0,1,-1487,922.5) translate(38.7 17.1)"/><use xlink:href="#F" transform="matrix(1,0,0,1,-1214.3333333333333,922.5) translate(24.025 17.1)"/><use xlink:href="#u" transform="matrix(1,0,0,1,-1569,954.5) translate(24.525 17.1)"/><use xlink:href="#v" transform="matrix(1,0,0,1,-1487,954.5) translate(83.6 17.1)"/><use xlink:href="#w" transform="matrix(1,0,0,1,-1214.3333333333333,954.5) translate(10.574999999999996 17.1)"/><defs><path fill="#333" d="M33 0v-38h34V0H33" id="ae"/><path fill="#333" d="M59-47c-2 24 18 29 38 22v24C64 9 27 4 27-40v-127H5v-23h24l9-43h21v43h35v23H59v120" id="af"/><path fill="#333" d="M179-190L93 31C79 59 56 82 12 73V49c39 6 53-20 64-50L1-190h34L92-34l54-156h33" id="ag"/><path fill="#333" d="M115-194c55 1 70 41 70 98S169 2 115 4C84 4 66-9 55-30l1 105H24l-1-265h31l2 30c10-21 28-34 59-34zm-8 174c40 0 45-34 45-75s-6-73-45-74c-42 0-51 32-51 76 0 43 10 73 51 73" id="ah"/><path fill="#333" d="M100-194c63 0 86 42 84 106H49c0 40 14 67 53 68 26 1 43-12 49-29l28 8c-11 28-37 45-77 45C44 4 14-33 15-96c1-61 26-98 85-98zm52 81c6-60-76-77-97-28-3 7-6 17-6 28h103" id="ai"/><path fill="#333" d="M205 0l-28-72H64L36 0H1l101-248h38L239 0h-34zm-38-99l-47-123c-12 45-31 82-46 123h93" id="aj"/><path fill="#333" d="M85-194c31 0 48 13 60 33l-1-100h32l1 261h-30c-2-10 0-23-3-31C134-8 116 4 85 4 32 4 16-35 15-94c0-66 23-100 70-100zm9 24c-40 0-46 34-46 75 0 40 6 74 45 74 42 0 51-32 51-76 0-42-9-74-50-73" id="ak"/><path fill="#333" d="M114-163C36-179 61-72 57 0H25l-1-190h30c1 12-1 29 2 39 6-27 23-49 58-41v29" id="al"/><path fill="#333" d="M135-143c-3-34-86-38-87 0 15 53 115 12 119 90S17 21 10-45l28-5c4 36 97 45 98 0-10-56-113-15-118-90-4-57 82-63 122-42 12 7 21 19 24 35" id="am"/><g id="a"><use transform="matrix(0.05,0,0,0.05,0,0)" xlink:href="#ae"/><use transform="matrix(0.05,0,0,0.05,5,0)" xlink:href="#af"/><use transform="matrix(0.05,0,0,0.05,10,0)" xlink:href="#ag"/><use transform="matrix(0.05,0,0,0.05,19,0)" xlink:href="#ah"/><use transform="matrix(0.05,0,0,0.05,29,0)" xlink:href="#ai"/><use transform="matrix(0.05,0,0,0.05,39,0)" xlink:href="#aj"/><use transform="matrix(0.05,0,0,0.05,51,0)" xlink:href="#ak"/><use transform="matrix(0.05,0,0,0.05,61,0)" xlink:href="#ak"/><use transform="matrix(0.05,0,0,0.05,71,0)" xlink:href="#al"/><use transform="matrix(0.05,0,0,0.05,76.95,0)" xlink:href="#ai"/><use transform="matrix(0.05,0,0,0.05,86.95,0)" xlink:href="#am"/><use transform="matrix(0.05,0,0,0.05,95.95,0)" xlink:href="#am"/></g><path fill="#333" d="M63-220v92h138v28H63V0H30v-248h175v28H63" id="an"/><path fill="#333" d="M194 0L95-120 63-95V0H30v-248h33v124l119-124h40L117-140 236 0h-42" id="ao"/><g id="b"><use transform="matrix(0.05,0,0,0.05,0,0)" xlink:href="#an"/><use transform="matrix(0.05,0,0,0.05,10.950000000000001,0)" xlink:href="#ao"/></g><path fill="#333" d="M115-194c53 0 69 39 70 98 0 66-23 100-70 100C84 3 66-7 56-30L54 0H23l1-261h32v101c10-23 28-34 59-34zm-8 174c40 0 45-34 45-75 0-40-5-75-45-74-42 0-51 32-51 76 0 43 10 73 51 73" id="ap"/><path fill="#333" d="M84 4C-5 8 30-112 23-190h32v120c0 31 7 50 39 49 72-2 45-101 50-169h31l1 190h-30c-1-10 1-25-2-33-11 22-28 36-60 37" id="aq"/><path fill="#333" d="M24-231v-30h32v30H24zM24 0v-190h32V0H24" id="ar"/><path fill="#333" d="M117-194c89-4 53 116 60 194h-32v-121c0-31-8-49-39-48C34-167 62-67 57 0H25l-1-190h30c1 10-1 24 2 32 11-22 29-35 61-36" id="as"/><path fill="#333" d="M30 0v-248h187v28H63v79h144v27H63v87h162V0H30" id="at"/><path fill="#333" d="M33 0v-248h34V0H33" id="au"/><path fill="#333" d="M30-248c118-7 216 8 213 122C240-48 200 0 122 0H30v-248zM63-27c89 8 146-16 146-99s-60-101-146-95v194" id="av"/><g id="c"><use transform="matrix(0.05,0,0,0.05,0,0)" xlink:href="#ap"/><use transform="matrix(0.05,0,0,0.05,10,0)" xlink:href="#aq"/><use transform="matrix(0.05,0,0,0.05,20,0)" xlink:href="#am"/><use transform="matrix(0.05,0,0,0.05,29,0)" xlink:href="#ar"/><use transform="matrix(0.05,0,0,0.05,32.95,0)" xlink:href="#as"/><use transform="matrix(0.05,0,0,0.05,42.95,0)" xlink:href="#ai"/><use transform="matrix(0.05,0,0,0.05,52.95,0)" xlink:href="#am"/><use transform="matrix(0.05,0,0,0.05,61.95,0)" xlink:href="#am"/><use transform="matrix(0.05,0,0,0.05,70.95,0)" xlink:href="#at"/><use transform="matrix(0.05,0,0,0.05,82.95,0)" xlink:href="#as"/><use transform="matrix(0.05,0,0,0.05,92.95,0)" xlink:href="#af"/><use transform="matrix(0.05,0,0,0.05,97.95,0)" xlink:href="#ar"/><use transform="matrix(0.05,0,0,0.05,101.9,0)" xlink:href="#af"/><use transform="matrix(0.05,0,0,0.05,106.9,0)" xlink:href="#ag"/><use transform="matrix(0.05,0,0,0.05,115.9,0)" xlink:href="#au"/><use transform="matrix(0.05,0,0,0.05,120.9,0)" xlink:href="#av"/><use transform="matrix(0.05,0,0,0.05,133.85,0)" xlink:href="#ae"/></g><path fill="#333" d="M177-190C167-65 218 103 67 71c-23-6-38-20-44-43l32-5c15 47 100 32 89-28v-30C133-14 115 1 83 1 29 1 15-40 15-95c0-56 16-97 71-98 29-1 48 16 59 35 1-10 0-23 2-32h30zM94-22c36 0 50-32 50-73 0-42-14-75-50-75-39 0-46 34-46 75s6 73 46 73" id="aw"/><g id="d"><use transform="matrix(0.05,0,0,0.05,0,0)" xlink:href="#am"/><use transform="matrix(0.05,0,0,0.05,9,0)" xlink:href="#af"/><use transform="matrix(0.05,0,0,0.05,14,0)" xlink:href="#al"/><use transform="matrix(0.05,0,0,0.05,19.95,0)" xlink:href="#ar"/><use transform="matrix(0.05,0,0,0.05,23.9,0)" xlink:href="#as"/><use transform="matrix(0.05,0,0,0.05,33.9,0)" xlink:href="#aw"/></g><path fill="#333" d="M30-248c87 1 191-15 191 75 0 78-77 80-158 76V0H30v-248zm33 125c57 0 124 11 124-50 0-59-68-47-124-48v98" id="ax"/><g id="e"><use transform="matrix(0.05,0,0,0.05,0,0)" xlink:href="#ax"/><use transform="matrix(0.05,0,0,0.05,12,0)" xlink:href="#ao"/></g><path fill="#333" d="M96-169c-40 0-48 33-48 73s9 75 48 75c24 0 41-14 43-38l32 2c-6 37-31 61-74 61-59 0-76-41-82-99-10-93 101-131 147-64 4 7 5 14 7 22l-32 3c-4-21-16-35-41-35" id="ay"/><path fill="#333" d="M100-194c62-1 85 37 85 99 1 63-27 99-86 99S16-35 15-95c0-66 28-99 85-99zM99-20c44 1 53-31 53-75 0-43-8-75-51-75s-53 32-53 75 10 74 51 75" id="az"/><path fill="#333" d="M141-36C126-15 110 5 73 4 37 3 15-17 15-53c-1-64 63-63 125-63 3-35-9-54-41-54-24 1-41 7-42 31l-33-3c5-37 33-52 76-52 45 0 72 20 72 64v82c-1 20 7 32 28 27v20c-31 9-61-2-59-35zM48-53c0 20 12 33 32 33 41-3 63-29 60-74-43 2-92-5-92 41" id="aA"/><g id="f"><use transform="matrix(0.05,0,0,0.05,0,0)" xlink:href="#ae"/><use transform="matrix(0.05,0,0,0.05,5,0)" xlink:href="#ay"/><use transform="matrix(0.05,0,0,0.05,14,0)" xlink:href="#az"/><use transform="matrix(0.05,0,0,0.05,24,0)" xlink:href="#as"/><use transform="matrix(0.05,0,0,0.05,34,0)" xlink:href="#ay"/><use transform="matrix(0.05,0,0,0.05,43,0)" xlink:href="#aA"/><use transform="matrix(0.05,0,0,0.05,53,0)" xlink:href="#af"/><use transform="matrix(0.05,0,0,0.05,58,0)" xlink:href="#ar"/><use transform="matrix(0.05,0,0,0.05,61.95,0)" xlink:href="#as"/><use transform="matrix(0.05,0,0,0.05,71.95,0)" xlink:href="#aA"/><use transform="matrix(0.05,0,0,0.05,81.95,0)" xlink:href="#af"/><use transform="matrix(0.05,0,0,0.05,86.95,0)" xlink:href="#ar"/><use transform="matrix(0.05,0,0,0.05,90.9,0)" xlink:href="#az"/><use transform="matrix(0.05,0,0,0.05,100.9,0)" xlink:href="#as"/><use transform="matrix(0.05,0,0,0.05,110.9,0)" xlink:href="#au"/><use transform="matrix(0.05,0,0,0.05,115.9,0)" xlink:href="#av"/></g><g id="g"><use transform="matrix(0.05,0,0,0.05,0,0)" xlink:href="#ay"/><use transform="matrix(0.05,0,0,0.05,9,0)" xlink:href="#al"/><use transform="matrix(0.05,0,0,0.05,14.949999999999998,0)" xlink:href="#ai"/><use transform="matrix(0.05,0,0,0.05,24.95,0)" xlink:href="#aA"/><use transform="matrix(0.05,0,0,0.05,34.95,0)" xlink:href="#af"/><use transform="matrix(0.05,0,0,0.05,39.95,0)" xlink:href="#ai"/><use transform="matrix(0.05,0,0,0.05,49.95,0)" xlink:href="#ak"/></g><path fill="#333" d="M16-82v-28h88v28H16" id="aB"/><path fill="#333" d="M210-169c-67 3-38 105-44 169h-31v-121c0-29-5-50-35-48C34-165 62-65 56 0H25l-1-190h30c1 10-1 24 2 32 10-44 99-50 107 0 11-21 27-35 58-36 85-2 47 119 55 194h-31v-121c0-29-5-49-35-48" id="aC"/><g id="h"><use transform="matrix(0.05,0,0,0.05,0,0)" xlink:href="#ak"/><use transform="matrix(0.05,0,0,0.05,10,0)" xlink:href="#aA"/><use transform="matrix(0.05,0,0,0.05,20,0)" xlink:href="#af"/><use transform="matrix(0.05,0,0,0.05,25,0)" xlink:href="#ai"/><use transform="matrix(0.05,0,0,0.05,35,0)" xlink:href="#aB"/><use transform="matrix(0.05,0,0,0.05,40.95,0)" xlink:href="#af"/><use transform="matrix(0.05,0,0,0.05,45.95,0)" xlink:href="#ar"/><use transform="matrix(0.05,0,0,0.05,49.900000000000006,0)" xlink:href="#aC"/><use transform="matrix(0.05,0,0,0.05,64.85000000000001,0)" xlink:href="#ai"/></g><g id="i"><use transform="matrix(0.05,0,0,0.05,0,0)" xlink:href="#am"/><use transform="matrix(0.05,0,0,0.05,9,0)" xlink:href="#af"/><use transform="matrix(0.05,0,0,0.05,14,0)" xlink:href="#al"/><use transform="matrix(0.05,0,0,0.05,19.95,0)" xlink:href="#ai"/><use transform="matrix(0.05,0,0,0.05,29.950000000000003,0)" xlink:href="#ai"/><use transform="matrix(0.05,0,0,0.05,39.95,0)" xlink:href="#af"/></g><g id="j"><use transform="matrix(0.05,0,0,0.05,0,0)" xlink:href="#am"/><use transform="matrix(0.05,0,0,0.05,9,0)" xlink:href="#af"/><use transform="matrix(0.05,0,0,0.05,14,0)" xlink:href="#al"/><use transform="matrix(0.05,0,0,0.05,19.95,0)" xlink:href="#ar"/><use transform="matrix(0.05,0,0,0.05,23.9,0)" xlink:href="#as"/><use transform="matrix(0.05,0,0,0.05,33.9,0)" xlink:href="#aw"/></g><g id="k"><use transform="matrix(0.05,0,0,0.05,0,0)" xlink:href="#as"/><use transform="matrix(0.05,0,0,0.05,10,0)" xlink:href="#aq"/><use transform="matrix(0.05,0,0,0.05,20,0)" xlink:href="#aC"/><use transform="matrix(0.05,0,0,0.05,34.95,0)" xlink:href="#ap"/><use transform="matrix(0.05,0,0,0.05,44.95,0)" xlink:href="#ai"/><use transform="matrix(0.05,0,0,0.05,54.95,0)" xlink:href="#al"/></g><g id="l"><use transform="matrix(0.05,0,0,0.05,0,0)" xlink:href="#aA"/><use transform="matrix(0.05,0,0,0.05,10,0)" xlink:href="#al"/><use transform="matrix(0.05,0,0,0.05,15.949999999999998,0)" xlink:href="#al"/><use transform="matrix(0.05,0,0,0.05,21.9,0)" xlink:href="#aA"/><use transform="matrix(0.05,0,0,0.05,31.899999999999995,0)" xlink:href="#ag"/></g><path fill="#333" d="M24 0v-261h32V0H24" id="aD"/><g id="m"><use transform="matrix(0.05,0,0,0.05,0,0)" xlink:href="#aA"/><use transform="matrix(0.05,0,0,0.05,10,0)" xlink:href="#ak"/><use transform="matrix(0.05,0,0,0.05,20,0)" xlink:href="#ak"/><use transform="matrix(0.05,0,0,0.05,30,0)" xlink:href="#ar"/><use transform="matrix(0.05,0,0,0.05,33.95,0)" xlink:href="#af"/><use transform="matrix(0.05,0,0,0.05,38.95,0)" xlink:href="#ar"/><use transform="matrix(0.05,0,0,0.05,42.900000000000006,0)" xlink:href="#az"/><use transform="matrix(0.05,0,0,0.05,52.900000000000006,0)" xlink:href="#as"/><use transform="matrix(0.05,0,0,0.05,62.900000000000006,0)" xlink:href="#aA"/><use transform="matrix(0.05,0,0,0.05,72.9,0)" xlink:href="#aD"/><use transform="matrix(0.05,0,0,0.05,76.85000000000001,0)" xlink:href="#aj"/><use transform="matrix(0.05,0,0,0.05,88.85000000000001,0)" xlink:href="#ak"/><use transform="matrix(0.05,0,0,0.05,98.85000000000001,0)" xlink:href="#ak"/><use transform="matrix(0.05,0,0,0.05,108.85000000000001,0)" xlink:href="#al"/><use transform="matrix(0.05,0,0,0.05,114.80000000000001,0)" xlink:href="#ai"/><use transform="matrix(0.05,0,0,0.05,124.80000000000001,0)" xlink:href="#am"/><use transform="matrix(0.05,0,0,0.05,133.8,0)" xlink:href="#am"/></g><g id="n"><use transform="matrix(0.05,0,0,0.05,0,0)" xlink:href="#aA"/><use transform="matrix(0.05,0,0,0.05,10,0)" xlink:href="#ah"/><use transform="matrix(0.05,0,0,0.05,20,0)" xlink:href="#aA"/><use transform="matrix(0.05,0,0,0.05,30,0)" xlink:href="#al"/><use transform="matrix(0.05,0,0,0.05,35.95,0)" xlink:href="#af"/><use transform="matrix(0.05,0,0,0.05,40.95,0)" xlink:href="#aC"/><use transform="matrix(0.05,0,0,0.05,55.900000000000006,0)" xlink:href="#ai"/><use transform="matrix(0.05,0,0,0.05,65.9,0)" xlink:href="#as"/><use transform="matrix(0.05,0,0,0.05,75.9,0)" xlink:href="#af"/></g><path fill="#333" d="M212-179c-10-28-35-45-73-45-59 0-87 40-87 99 0 60 29 101 89 101 43 0 62-24 78-52l27 14C228-24 195 4 139 4 59 4 22-46 18-125c-6-104 99-153 187-111 19 9 31 26 39 46" id="aE"/><g id="o"><use transform="matrix(0.05,0,0,0.05,0,0)" xlink:href="#ah"/><use transform="matrix(0.05,0,0,0.05,10,0)" xlink:href="#az"/><use transform="matrix(0.05,0,0,0.05,20,0)" xlink:href="#am"/><use transform="matrix(0.05,0,0,0.05,29,0)" xlink:href="#af"/><use transform="matrix(0.05,0,0,0.05,34,0)" xlink:href="#aA"/><use transform="matrix(0.05,0,0,0.05,44,0)" xlink:href="#aD"/><use transform="matrix(0.05,0,0,0.05,47.95,0)" xlink:href="#aE"/><use transform="matrix(0.05,0,0,0.05,60.900000000000006,0)" xlink:href="#az"/><use transform="matrix(0.05,0,0,0.05,70.9,0)" xlink:href="#ak"/><use transform="matrix(0.05,0,0,0.05,80.9,0)" xlink:href="#ai"/></g><g id="p"><use transform="matrix(0.05,0,0,0.05,0,0)" xlink:href="#ay"/><use transform="matrix(0.05,0,0,0.05,9,0)" xlink:href="#ar"/><use transform="matrix(0.05,0,0,0.05,12.949999999999998,0)" xlink:href="#af"/><use transform="matrix(0.05,0,0,0.05,17.95,0)" xlink:href="#ag"/></g><g id="q"><use transform="matrix(0.05,0,0,0.05,0,0)" xlink:href="#ak"/><use transform="matrix(0.05,0,0,0.05,10,0)" xlink:href="#ar"/><use transform="matrix(0.05,0,0,0.05,13.949999999999998,0)" xlink:href="#am"/><use transform="matrix(0.05,0,0,0.05,22.95,0)" xlink:href="#af"/><use transform="matrix(0.05,0,0,0.05,27.950000000000003,0)" xlink:href="#al"/><use transform="matrix(0.05,0,0,0.05,33.9,0)" xlink:href="#ar"/><use transform="matrix(0.05,0,0,0.05,37.85,0)" xlink:href="#ay"/><use transform="matrix(0.05,0,0,0.05,46.85,0)" xlink:href="#af"/></g><g id="r"><use transform="matrix(0.05,0,0,0.05,0,0)" xlink:href="#ay"/><use transform="matrix(0.05,0,0,0.05,9,0)" xlink:href="#az"/><use transform="matrix(0.05,0,0,0.05,19,0)" xlink:href="#aq"/><use transform="matrix(0.05,0,0,0.05,29,0)" xlink:href="#as"/><use transform="matrix(0.05,0,0,0.05,39,0)" xlink:href="#af"/><use transform="matrix(0.05,0,0,0.05,44,0)" xlink:href="#al"/><use transform="matrix(0.05,0,0,0.05,49.95,0)" xlink:href="#ag"/></g><g id="s"><use transform="matrix(0.05,0,0,0.05,0,0)" xlink:href="#ay"/><use transform="matrix(0.05,0,0,0.05,9,0)" xlink:href="#az"/><use transform="matrix(0.05,0,0,0.05,19,0)" xlink:href="#aq"/><use transform="matrix(0.05,0,0,0.05,29,0)" xlink:href="#as"/><use transform="matrix(0.05,0,0,0.05,39,0)" xlink:href="#af"/><use transform="matrix(0.05,0,0,0.05,44,0)" xlink:href="#al"/><use transform="matrix(0.05,0,0,0.05,49.95,0)" xlink:href="#ag"/><use transform="matrix(0.05,0,0,0.05,58.95,0)" xlink:href="#aE"/><use transform="matrix(0.05,0,0,0.05,71.9,0)" xlink:href="#az"/><use transform="matrix(0.05,0,0,0.05,81.9,0)" xlink:href="#ak"/><use transform="matrix(0.05,0,0,0.05,91.9,0)" xlink:href="#ai"/></g><g id="t"><use transform="matrix(0.05,0,0,0.05,0,0)" xlink:href="#am"/><use transform="matrix(0.05,0,0,0.05,9,0)" xlink:href="#af"/><use transform="matrix(0.05,0,0,0.05,14,0)" xlink:href="#aA"/><use transform="matrix(0.05,0,0,0.05,24,0)" xlink:href="#af"/><use transform="matrix(0.05,0,0,0.05,29,0)" xlink:href="#ai"/></g><g id="u"><use transform="matrix(0.05,0,0,0.05,0,0)" xlink:href="#an"/><use transform="matrix(0.05,0,0,0.05,10.950000000000001,0)" xlink:href="#ao"/></g><path fill="#333" d="M240 0l2-218c-23 76-54 145-80 218h-23L58-218 59 0H30v-248h44l77 211c21-75 51-140 76-211h43V0h-30" id="aF"/><path fill="#333" d="M101-234c-31-9-42 10-38 44h38v23H63V0H32v-167H5v-23h27c-7-52 17-82 69-68v24" id="aG"/><g id="v"><use transform="matrix(0.05,0,0,0.05,0,0)" xlink:href="#aD"/><use transform="matrix(0.05,0,0,0.05,3.95,0)" xlink:href="#aA"/><use transform="matrix(0.05,0,0,0.05,13.949999999999998,0)" xlink:href="#am"/><use transform="matrix(0.05,0,0,0.05,22.95,0)" xlink:href="#af"/><use transform="matrix(0.05,0,0,0.05,27.950000000000003,0)" xlink:href="#aF"/><use transform="matrix(0.05,0,0,0.05,42.9,0)" xlink:href="#az"/><use transform="matrix(0.05,0,0,0.05,52.900000000000006,0)" xlink:href="#ak"/><use transform="matrix(0.05,0,0,0.05,62.900000000000006,0)" xlink:href="#ar"/><use transform="matrix(0.05,0,0,0.05,66.85,0)" xlink:href="#aG"/><use transform="matrix(0.05,0,0,0.05,71.85,0)" xlink:href="#ar"/><use transform="matrix(0.05,0,0,0.05,75.8,0)" xlink:href="#ai"/><use transform="matrix(0.05,0,0,0.05,85.8,0)" xlink:href="#ak"/></g><g id="w"><use transform="matrix(0.05,0,0,0.05,0,0)" xlink:href="#ak"/><use transform="matrix(0.05,0,0,0.05,10,0)" xlink:href="#aA"/><use transform="matrix(0.05,0,0,0.05,20,0)" xlink:href="#af"/><use transform="matrix(0.05,0,0,0.05,25,0)" xlink:href="#ai"/><use transform="matrix(0.05,0,0,0.05,35,0)" xlink:href="#aB"/><use transform="matrix(0.05,0,0,0.05,40.95,0)" xlink:href="#af"/><use transform="matrix(0.05,0,0,0.05,45.95,0)" xlink:href="#ar"/><use transform="matrix(0.05,0,0,0.05,49.900000000000006,0)" xlink:href="#aC"/><use transform="matrix(0.05,0,0,0.05,64.85000000000001,0)" xlink:href="#ai"/></g><g id="x"><use transform="matrix(0.05,0,0,0.05,0,0)" xlink:href="#ae"/><use transform="matrix(0.05,0,0,0.05,5,0)" xlink:href="#af"/><use transform="matrix(0.05,0,0,0.05,10,0)" xlink:href="#ag"/><use transform="matrix(0.05,0,0,0.05,19,0)" xlink:href="#ah"/><use transform="matrix(0.05,0,0,0.05,29,0)" xlink:href="#ai"/><use transform="matrix(0.05,0,0,0.05,39,0)" xlink:href="#aE"/><use transform="matrix(0.05,0,0,0.05,51.95,0)" xlink:href="#az"/><use transform="matrix(0.05,0,0,0.05,61.95,0)" xlink:href="#as"/><use transform="matrix(0.05,0,0,0.05,71.95,0)" xlink:href="#af"/><use transform="matrix(0.05,0,0,0.05,76.95,0)" xlink:href="#aA"/><use transform="matrix(0.05,0,0,0.05,86.95,0)" xlink:href="#ay"/><use transform="matrix(0.05,0,0,0.05,95.95,0)" xlink:href="#af"/></g><g id="y"><use transform="matrix(0.05,0,0,0.05,0,0)" xlink:href="#ai"/><use transform="matrix(0.05,0,0,0.05,10,0)" xlink:href="#aC"/><use transform="matrix(0.05,0,0,0.05,24.950000000000003,0)" xlink:href="#aA"/><use transform="matrix(0.05,0,0,0.05,34.95,0)" xlink:href="#ar"/><use transform="matrix(0.05,0,0,0.05,38.900000000000006,0)" xlink:href="#aD"/></g><g id="z"><use transform="matrix(0.05,0,0,0.05,0,0)" xlink:href="#aC"/><use transform="matrix(0.05,0,0,0.05,14.950000000000001,0)" xlink:href="#az"/><use transform="matrix(0.05,0,0,0.05,24.950000000000003,0)" xlink:href="#ap"/><use transform="matrix(0.05,0,0,0.05,34.95,0)" xlink:href="#ar"/><use transform="matrix(0.05,0,0,0.05,38.900000000000006,0)" xlink:href="#aD"/><use transform="matrix(0.05,0,0,0.05,42.85000000000001,0)" xlink:href="#ai"/></g><path fill="#333" d="M106-169C34-169 62-67 57 0H25v-261h32l-1 103c12-21 28-36 61-36 89 0 53 116 60 194h-32v-121c2-32-8-49-39-48" id="aH"/><g id="A"><use transform="matrix(0.05,0,0,0.05,0,0)" xlink:href="#ah"/><use transform="matrix(0.05,0,0,0.05,10,0)" xlink:href="#aH"/><use transform="matrix(0.05,0,0,0.05,20,0)" xlink:href="#az"/><use transform="matrix(0.05,0,0,0.05,30,0)" xlink:href="#as"/><use transform="matrix(0.05,0,0,0.05,40,0)" xlink:href="#ai"/></g><g id="B"><use transform="matrix(0.05,0,0,0.05,0,0)" xlink:href="#ah"/><use transform="matrix(0.05,0,0,0.05,10,0)" xlink:href="#aA"/><use transform="matrix(0.05,0,0,0.05,20,0)" xlink:href="#aw"/><use transform="matrix(0.05,0,0,0.05,30,0)" xlink:href="#ai"/><use transform="matrix(0.05,0,0,0.05,40,0)" xlink:href="#al"/></g><path fill="#333" d="M141 0L90-78 38 0H4l68-98-65-92h35l48 74 47-74h35l-64 92 68 98h-35" id="aI"/><g id="C"><use transform="matrix(0.05,0,0,0.05,0,0)" xlink:href="#aG"/><use transform="matrix(0.05,0,0,0.05,5,0)" xlink:href="#aA"/><use transform="matrix(0.05,0,0,0.05,15,0)" xlink:href="#aI"/></g><path fill="#333" d="M206 0h-36l-40-164L89 0H53L-1-190h32L70-26l43-164h34l41 164 42-164h31" id="aJ"/><g id="D"><use transform="matrix(0.05,0,0,0.05,0,0)" xlink:href="#aJ"/><use transform="matrix(0.05,0,0,0.05,12.950000000000001,0)" xlink:href="#ai"/><use transform="matrix(0.05,0,0,0.05,22.950000000000003,0)" xlink:href="#ap"/></g><g id="E"><use transform="matrix(0.05,0,0,0.05,0,0)" xlink:href="#ay"/><use transform="matrix(0.05,0,0,0.05,9,0)" xlink:href="#aH"/><use transform="matrix(0.05,0,0,0.05,19,0)" xlink:href="#aA"/><use transform="matrix(0.05,0,0,0.05,29,0)" xlink:href="#af"/></g><path fill="#333" d="M24-231v-30h32v30H24zM-9 49c24 4 33-6 33-30v-209h32V24c2 40-23 58-65 49V49" id="aK"/><g id="F"><use transform="matrix(0.05,0,0,0.05,0,0)" xlink:href="#az"/><use transform="matrix(0.05,0,0,0.05,10,0)" xlink:href="#ap"/><use transform="matrix(0.05,0,0,0.05,20,0)" xlink:href="#aK"/><use transform="matrix(0.05,0,0,0.05,23.95,0)" xlink:href="#ai"/><use transform="matrix(0.05,0,0,0.05,33.95,0)" xlink:href="#ay"/><use transform="matrix(0.05,0,0,0.05,42.95,0)" xlink:href="#af"/></g><g id="G"><use transform="matrix(0.05,0,0,0.05,0,0)" xlink:href="#am"/><use transform="matrix(0.05,0,0,0.05,9,0)" xlink:href="#az"/><use transform="matrix(0.05,0,0,0.05,19,0)" xlink:href="#ay"/><use transform="matrix(0.05,0,0,0.05,28,0)" xlink:href="#ar"/><use transform="matrix(0.05,0,0,0.05,31.950000000000003,0)" xlink:href="#aA"/><use transform="matrix(0.05,0,0,0.05,41.95,0)" xlink:href="#aD"/></g><path fill="#333" d="M160-131c35 5 61 23 61 61C221 17 115-2 30 0v-248c76 3 177-17 177 60 0 33-19 50-47 57zm-97-11c50-1 110 9 110-42 0-47-63-36-110-37v79zm0 115c55-2 124 14 124-45 0-56-70-42-124-44v89" id="aL"/><g id="H"><use transform="matrix(0.05,0,0,0.05,0,0)" xlink:href="#aL"/><use transform="matrix(0.05,0,0,0.05,12,0)" xlink:href="#aq"/><use transform="matrix(0.05,0,0,0.05,22,0)" xlink:href="#am"/><use transform="matrix(0.05,0,0,0.05,31,0)" xlink:href="#ar"/><use transform="matrix(0.05,0,0,0.05,34.95,0)" xlink:href="#as"/><use transform="matrix(0.05,0,0,0.05,44.95,0)" xlink:href="#ai"/><use transform="matrix(0.05,0,0,0.05,54.95,0)" xlink:href="#am"/><use transform="matrix(0.05,0,0,0.05,63.95,0)" xlink:href="#am"/><use transform="matrix(0.05,0,0,0.05,72.95,0)" xlink:href="#at"/><use transform="matrix(0.05,0,0,0.05,84.95,0)" xlink:href="#as"/><use transform="matrix(0.05,0,0,0.05,94.95,0)" xlink:href="#af"/><use transform="matrix(0.05,0,0,0.05,99.95,0)" xlink:href="#ar"/><use transform="matrix(0.05,0,0,0.05,103.9,0)" xlink:href="#af"/><use transform="matrix(0.05,0,0,0.05,108.9,0)" xlink:href="#ag"/><use transform="matrix(0.05,0,0,0.05,116.55000000000001,0)" xlink:href="#ae"/></g><g id="I"><use transform="matrix(0.05,0,0,0.05,0,0)" xlink:href="#ap"/><use transform="matrix(0.05,0,0,0.05,10,0)" xlink:href="#aq"/><use transform="matrix(0.05,0,0,0.05,20,0)" xlink:href="#am"/><use transform="matrix(0.05,0,0,0.05,29,0)" xlink:href="#ar"/><use transform="matrix(0.05,0,0,0.05,32.95,0)" xlink:href="#as"/><use transform="matrix(0.05,0,0,0.05,42.95,0)" xlink:href="#ai"/><use transform="matrix(0.05,0,0,0.05,52.95,0)" xlink:href="#am"/><use transform="matrix(0.05,0,0,0.05,61.95,0)" xlink:href="#am"/><use transform="matrix(0.05,0,0,0.05,70.95,0)" xlink:href="#at"/><use transform="matrix(0.05,0,0,0.05,82.95,0)" xlink:href="#as"/><use transform="matrix(0.05,0,0,0.05,92.95,0)" xlink:href="#af"/><use transform="matrix(0.05,0,0,0.05,97.95,0)" xlink:href="#ar"/><use transform="matrix(0.05,0,0,0.05,101.9,0)" xlink:href="#af"/><use transform="matrix(0.05,0,0,0.05,106.9,0)" xlink:href="#ag"/><use transform="matrix(0.05,0,0,0.05,115.9,0)" xlink:href="#au"/><use transform="matrix(0.05,0,0,0.05,120.9,0)" xlink:href="#av"/></g><g id="J"><use transform="matrix(0.05,0,0,0.05,0,0)" xlink:href="#ax"/><use transform="matrix(0.05,0,0,0.05,12,0)" xlink:href="#ao"/></g><g id="K"><use transform="matrix(0.05,0,0,0.05,0,0)" xlink:href="#aD"/><use transform="matrix(0.05,0,0,0.05,3.95,0)" xlink:href="#aA"/><use transform="matrix(0.05,0,0,0.05,13.949999999999998,0)" xlink:href="#am"/><use transform="matrix(0.05,0,0,0.05,22.95,0)" xlink:href="#af"/><use transform="matrix(0.05,0,0,0.05,27.950000000000003,0)" xlink:href="#aF"/><use transform="matrix(0.05,0,0,0.05,42.9,0)" xlink:href="#az"/><use transform="matrix(0.05,0,0,0.05,52.900000000000006,0)" xlink:href="#ak"/><use transform="matrix(0.05,0,0,0.05,62.900000000000006,0)" xlink:href="#ar"/><use transform="matrix(0.05,0,0,0.05,66.85,0)" xlink:href="#aG"/><use transform="matrix(0.05,0,0,0.05,71.85,0)" xlink:href="#ar"/><use transform="matrix(0.05,0,0,0.05,75.8,0)" xlink:href="#ai"/><use transform="matrix(0.05,0,0,0.05,85.8,0)" xlink:href="#ak"/></g><g id="L"><use transform="matrix(0.05,0,0,0.05,0,0)" xlink:href="#ae"/><use transform="matrix(0.05,0,0,0.05,5,0)" xlink:href="#af"/><use transform="matrix(0.05,0,0,0.05,10,0)" xlink:href="#ag"/><use transform="matrix(0.05,0,0,0.05,19,0)" xlink:href="#ah"/><use transform="matrix(0.05,0,0,0.05,29,0)" xlink:href="#ai"/><use transform="matrix(0.05,0,0,0.05,39,0)" xlink:href="#ax"/><use transform="matrix(0.05,0,0,0.05,51,0)" xlink:href="#ai"/><use transform="matrix(0.05,0,0,0.05,61,0)" xlink:href="#al"/><use transform="matrix(0.05,0,0,0.05,66.95,0)" xlink:href="#am"/><use transform="matrix(0.05,0,0,0.05,75.95,0)" xlink:href="#az"/><use transform="matrix(0.05,0,0,0.05,85.95,0)" xlink:href="#as"/><use transform="matrix(0.05,0,0,0.05,95.95,0)" xlink:href="#ae"/></g><g id="M"><use transform="matrix(0.05,0,0,0.05,0,0)" xlink:href="#aw"/><use transform="matrix(0.05,0,0,0.05,10,0)" xlink:href="#ai"/><use transform="matrix(0.05,0,0,0.05,20,0)" xlink:href="#as"/><use transform="matrix(0.05,0,0,0.05,30,0)" xlink:href="#ak"/><use transform="matrix(0.05,0,0,0.05,40,0)" xlink:href="#ai"/><use transform="matrix(0.05,0,0,0.05,50,0)" xlink:href="#al"/></g><g id="N"><use transform="matrix(0.05,0,0,0.05,0,0)" xlink:href="#ai"/><use transform="matrix(0.05,0,0,0.05,10,0)" xlink:href="#as"/><use transform="matrix(0.05,0,0,0.05,20,0)" xlink:href="#aq"/><use transform="matrix(0.05,0,0,0.05,30,0)" xlink:href="#aC"/></g><g id="O"><use transform="matrix(0.05,0,0,0.05,0,0)" xlink:href="#af"/><use transform="matrix(0.05,0,0,0.05,5,0)" xlink:href="#ar"/><use transform="matrix(0.05,0,0,0.05,8.95,0)" xlink:href="#af"/><use transform="matrix(0.05,0,0,0.05,13.949999999999998,0)" xlink:href="#aD"/><use transform="matrix(0.05,0,0,0.05,17.9,0)" xlink:href="#ai"/></g><path fill="#333" d="M190 0L58-211 59 0H30v-248h39L202-35l-2-213h31V0h-41" id="aM"/><g id="P"><use transform="matrix(0.05,0,0,0.05,0,0)" xlink:href="#aG"/><use transform="matrix(0.05,0,0,0.05,5,0)" xlink:href="#ar"/><use transform="matrix(0.05,0,0,0.05,8.95,0)" xlink:href="#al"/><use transform="matrix(0.05,0,0,0.05,14.899999999999999,0)" xlink:href="#am"/><use transform="matrix(0.05,0,0,0.05,23.9,0)" xlink:href="#af"/><use transform="matrix(0.05,0,0,0.05,28.899999999999995,0)" xlink:href="#aM"/><use transform="matrix(0.05,0,0,0.05,41.85,0)" xlink:href="#aA"/><use transform="matrix(0.05,0,0,0.05,51.85,0)" xlink:href="#aC"/><use transform="matrix(0.05,0,0,0.05,66.8,0)" xlink:href="#ai"/></g><g id="Q"><use transform="matrix(0.05,0,0,0.05,0,0)" xlink:href="#aC"/><use transform="matrix(0.05,0,0,0.05,14.950000000000001,0)" xlink:href="#ar"/><use transform="matrix(0.05,0,0,0.05,18.900000000000002,0)" xlink:href="#ak"/><use transform="matrix(0.05,0,0,0.05,28.900000000000002,0)" xlink:href="#aM"/><use transform="matrix(0.05,0,0,0.05,41.85,0)" xlink:href="#aA"/><use transform="matrix(0.05,0,0,0.05,51.85,0)" xlink:href="#aC"/><use transform="matrix(0.05,0,0,0.05,66.8,0)" xlink:href="#ai"/></g><g id="R"><use transform="matrix(0.05,0,0,0.05,0,0)" xlink:href="#aD"/><use transform="matrix(0.05,0,0,0.05,3.95,0)" xlink:href="#aA"/><use transform="matrix(0.05,0,0,0.05,13.949999999999998,0)" xlink:href="#am"/><use transform="matrix(0.05,0,0,0.05,22.95,0)" xlink:href="#af"/><use transform="matrix(0.05,0,0,0.05,27.950000000000003,0)" xlink:href="#aM"/><use transform="matrix(0.05,0,0,0.05,40.9,0)" xlink:href="#aA"/><use transform="matrix(0.05,0,0,0.05,50.9,0)" xlink:href="#aC"/><use transform="matrix(0.05,0,0,0.05,65.85,0)" xlink:href="#ai"/></g><g id="S"><use transform="matrix(0.05,0,0,0.05,0,0)" xlink:href="#ap"/><use transform="matrix(0.05,0,0,0.05,10,0)" xlink:href="#ar"/><use transform="matrix(0.05,0,0,0.05,13.949999999999998,0)" xlink:href="#al"/><use transform="matrix(0.05,0,0,0.05,19.9,0)" xlink:href="#af"/><use transform="matrix(0.05,0,0,0.05,24.9,0)" xlink:href="#aH"/><use transform="matrix(0.05,0,0,0.05,34.9,0)" xlink:href="#av"/><use transform="matrix(0.05,0,0,0.05,47.85,0)" xlink:href="#aA"/><use transform="matrix(0.05,0,0,0.05,57.85,0)" xlink:href="#af"/><use transform="matrix(0.05,0,0,0.05,62.85,0)" xlink:href="#ai"/></g><g id="T"><use transform="matrix(0.05,0,0,0.05,0,0)" xlink:href="#ah"/><use transform="matrix(0.05,0,0,0.05,10,0)" xlink:href="#az"/><use transform="matrix(0.05,0,0,0.05,20,0)" xlink:href="#am"/><use transform="matrix(0.05,0,0,0.05,29,0)" xlink:href="#ar"/><use transform="matrix(0.05,0,0,0.05,32.95,0)" xlink:href="#af"/><use transform="matrix(0.05,0,0,0.05,37.95,0)" xlink:href="#ar"/><use transform="matrix(0.05,0,0,0.05,41.900000000000006,0)" xlink:href="#az"/><use transform="matrix(0.05,0,0,0.05,51.900000000000006,0)" xlink:href="#as"/></g><g id="U"><use transform="matrix(0.05,0,0,0.05,0,0)" xlink:href="#ah"/><use transform="matrix(0.05,0,0,0.05,10,0)" xlink:href="#ai"/><use transform="matrix(0.05,0,0,0.05,20,0)" xlink:href="#al"/><use transform="matrix(0.05,0,0,0.05,25.950000000000003,0)" xlink:href="#am"/><use transform="matrix(0.05,0,0,0.05,34.95,0)" xlink:href="#az"/><use transform="matrix(0.05,0,0,0.05,44.95,0)" xlink:href="#as"/><use transform="matrix(0.05,0,0,0.05,54.95,0)" xlink:href="#ai"/><use transform="matrix(0.05,0,0,0.05,64.95,0)" xlink:href="#aD"/><use transform="matrix(0.05,0,0,0.05,68.9,0)" xlink:href="#aM"/><use transform="matrix(0.05,0,0,0.05,81.85000000000001,0)" xlink:href="#aq"/><use transform="matrix(0.05,0,0,0.05,91.85000000000001,0)" xlink:href="#aC"/><use transform="matrix(0.05,0,0,0.05,106.80000000000001,0)" xlink:href="#ap"/><use transform="matrix(0.05,0,0,0.05,116.80000000000001,0)" xlink:href="#ai"/><use transform="matrix(0.05,0,0,0.05,126.80000000000001,0)" xlink:href="#al"/></g><g id="V"><use transform="matrix(0.05,0,0,0.05,0,0)" xlink:href="#ak"/><use transform="matrix(0.05,0,0,0.05,10,0)" xlink:href="#ai"/><use transform="matrix(0.05,0,0,0.05,20,0)" xlink:href="#ah"/><use transform="matrix(0.05,0,0,0.05,30,0)" xlink:href="#aA"/><use transform="matrix(0.05,0,0,0.05,40,0)" xlink:href="#al"/><use transform="matrix(0.05,0,0,0.05,45.95,0)" xlink:href="#af"/><use transform="matrix(0.05,0,0,0.05,50.95,0)" xlink:href="#aC"/><use transform="matrix(0.05,0,0,0.05,65.9,0)" xlink:href="#ai"/><use transform="matrix(0.05,0,0,0.05,75.9,0)" xlink:href="#as"/><use transform="matrix(0.05,0,0,0.05,85.9,0)" xlink:href="#af"/></g><g id="W"><use transform="matrix(0.05,0,0,0.05,0,0)" xlink:href="#aD"/><use transform="matrix(0.05,0,0,0.05,3.95,0)" xlink:href="#aA"/><use transform="matrix(0.05,0,0,0.05,13.949999999999998,0)" xlink:href="#as"/><use transform="matrix(0.05,0,0,0.05,23.95,0)" xlink:href="#aw"/><use transform="matrix(0.05,0,0,0.05,33.95,0)" xlink:href="#aq"/><use transform="matrix(0.05,0,0,0.05,43.95,0)" xlink:href="#aA"/><use transform="matrix(0.05,0,0,0.05,53.95,0)" xlink:href="#aw"/><use transform="matrix(0.05,0,0,0.05,63.95,0)" xlink:href="#ai"/></g><g id="X"><use transform="matrix(0.05,0,0,0.05,0,0)" xlink:href="#aA"/><use transform="matrix(0.05,0,0,0.05,10,0)" xlink:href="#aD"/><use transform="matrix(0.05,0,0,0.05,13.949999999999998,0)" xlink:href="#ar"/><use transform="matrix(0.05,0,0,0.05,17.9,0)" xlink:href="#aA"/><use transform="matrix(0.05,0,0,0.05,27.899999999999995,0)" xlink:href="#am"/></g><g id="Y"><use transform="matrix(0.05,0,0,0.05,0,0)" xlink:href="#ah"/><use transform="matrix(0.05,0,0,0.05,10,0)" xlink:href="#ar"/><use transform="matrix(0.05,0,0,0.05,13.949999999999998,0)" xlink:href="#ay"/><use transform="matrix(0.05,0,0,0.05,22.95,0)" xlink:href="#af"/><use transform="matrix(0.05,0,0,0.05,27.950000000000003,0)" xlink:href="#aq"/><use transform="matrix(0.05,0,0,0.05,37.95,0)" xlink:href="#al"/><use transform="matrix(0.05,0,0,0.05,43.900000000000006,0)" xlink:href="#ai"/></g><g id="Z"><use transform="matrix(0.05,0,0,0.05,0,0)" xlink:href="#as"/><use transform="matrix(0.05,0,0,0.05,10,0)" xlink:href="#az"/><use transform="matrix(0.05,0,0,0.05,20,0)" xlink:href="#af"/><use transform="matrix(0.05,0,0,0.05,25,0)" xlink:href="#ai"/></g><path fill="#333" d="M140-251c81 0 123 46 123 126C263-46 219 4 140 4 59 4 17-45 17-125s42-126 123-126zm0 227c63 0 89-41 89-101s-29-99-89-99c-61 0-89 39-89 99S79-25 140-24" id="aN"/><path fill="#333" d="M9 0v-24l116-142H16v-24h144v24L44-24h123V0H9" id="aO"/><g id="aa"><use transform="matrix(0.05,0,0,0.05,0,0)" xlink:href="#ae"/><use transform="matrix(0.05,0,0,0.05,5,0)" xlink:href="#af"/><use transform="matrix(0.05,0,0,0.05,10,0)" xlink:href="#ag"/><use transform="matrix(0.05,0,0,0.05,19,0)" xlink:href="#ah"/><use transform="matrix(0.05,0,0,0.05,29,0)" xlink:href="#ai"/><use transform="matrix(0.05,0,0,0.05,39,0)" xlink:href="#aN"/><use transform="matrix(0.05,0,0,0.05,53,0)" xlink:href="#al"/><use transform="matrix(0.05,0,0,0.05,58.95,0)" xlink:href="#aw"/><use transform="matrix(0.05,0,0,0.05,68.95,0)" xlink:href="#aA"/><use transform="matrix(0.05,0,0,0.05,78.95,0)" xlink:href="#as"/><use transform="matrix(0.05,0,0,0.05,88.95,0)" xlink:href="#ar"/><use transform="matrix(0.05,0,0,0.05,92.9,0)" xlink:href="#aO"/><use transform="matrix(0.05,0,0,0.05,101.9,0)" xlink:href="#aA"/><use transform="matrix(0.05,0,0,0.05,111.9,0)" xlink:href="#af"/><use transform="matrix(0.05,0,0,0.05,116.9,0)" xlink:href="#ar"/><use transform="matrix(0.05,0,0,0.05,120.85000000000001,0)" xlink:href="#az"/><use transform="matrix(0.05,0,0,0.05,130.85000000000002,0)" xlink:href="#as"/><use transform="matrix(0.05,0,0,0.05,140.85000000000002,0)" xlink:href="#ae"/></g><g id="ab"><use transform="matrix(0.05,0,0,0.05,0,0)" xlink:href="#as"/><use transform="matrix(0.05,0,0,0.05,10,0)" xlink:href="#aA"/><use transform="matrix(0.05,0,0,0.05,20,0)" xlink:href="#aC"/><use transform="matrix(0.05,0,0,0.05,34.95,0)" xlink:href="#ai"/></g><g id="ac"><use transform="matrix(0.05,0,0,0.05,0,0)" xlink:href="#af"/><use transform="matrix(0.05,0,0,0.05,5,0)" xlink:href="#aA"/><use transform="matrix(0.05,0,0,0.05,15,0)" xlink:href="#aI"/><use transform="matrix(0.05,0,0,0.05,24,0)" xlink:href="#aM"/><use transform="matrix(0.05,0,0,0.05,36.95,0)" xlink:href="#aq"/><use transform="matrix(0.05,0,0,0.05,46.95,0)" xlink:href="#aC"/><use transform="matrix(0.05,0,0,0.05,61.900000000000006,0)" xlink:href="#ap"/><use transform="matrix(0.05,0,0,0.05,71.9,0)" xlink:href="#ai"/><use transform="matrix(0.05,0,0,0.05,81.9,0)" xlink:href="#al"/></g><path fill="#333" d="M233-177c-1 41-23 64-60 70L243 0h-38l-65-103H63V0H30v-248c88 3 205-21 203 71zM63-129c60-2 137 13 137-47 0-61-80-42-137-45v92" id="aP"/><g id="ad"><use transform="matrix(0.05,0,0,0.05,0,0)" xlink:href="#ay"/><use transform="matrix(0.05,0,0,0.05,9,0)" xlink:href="#al"/><use transform="matrix(0.05,0,0,0.05,14.949999999999998,0)" xlink:href="#ai"/><use transform="matrix(0.05,0,0,0.05,24.95,0)" xlink:href="#ak"/><use transform="matrix(0.05,0,0,0.05,34.95,0)" xlink:href="#af"/><use transform="matrix(0.05,0,0,0.05,39.95,0)" xlink:href="#ar"/><use transform="matrix(0.05,0,0,0.05,43.900000000000006,0)" xlink:href="#aP"/><use transform="matrix(0.05,0,0,0.05,56.85,0)" xlink:href="#ai"/><use transform="matrix(0.05,0,0,0.05,66.85000000000001,0)" xlink:href="#ah"/><use transform="matrix(0.05,0,0,0.05,76.85000000000001,0)" xlink:href="#az"/><use transform="matrix(0.05,0,0,0.05,86.85000000000001,0)" xlink:href="#al"/><use transform="matrix(0.05,0,0,0.05,92.80000000000001,0)" xlink:href="#af"/><use transform="matrix(0.05,0,0,0.05,97.80000000000001,0)" xlink:href="#ar"/><use transform="matrix(0.05,0,0,0.05,101.75000000000001,0)" xlink:href="#as"/><use transform="matrix(0.05,0,0,0.05,111.75,0)" xlink:href="#aw"/><use transform="matrix(0.05,0,0,0.05,121.75,0)" xlink:href="#aM"/><use transform="matrix(0.05,0,0,0.05,134.70000000000002,0)" xlink:href="#aq"/><use transform="matrix(0.05,0,0,0.05,144.70000000000002,0)" xlink:href="#aC"/><use transform="matrix(0.05,0,0,0.05,159.65,0)" xlink:href="#ap"/><use transform="matrix(0.05,0,0,0.05,169.65,0)" xlink:href="#ai"/><use transform="matrix(0.05,0,0,0.05,179.65,0)" xlink:href="#al"/></g></defs></g></svg>